<?xml version="1.0" encoding="UTF-8"?>
<!DOCTYPE svg PUBLIC "-//W3C//DTD SVG 1.1//EN" "http://www.w3.org/Graphics/SVG/1.1/DTD/svg11.dtd">
<!-- Creator: CorelDRAW 2021 (64-Bit) -->
<svg xmlns="http://www.w3.org/2000/svg" xml:space="preserve" width="31.75mm" height="31.75mm" version="1.1" style="shape-rendering:geometricPrecision; text-rendering:geometricPrecision; image-rendering:optimizeQuality; fill-rule:evenodd; clip-rule:evenodd"
viewBox="0 0 3175 3175"
 xmlns:xlink="http://www.w3.org/1999/xlink"
 xmlns:xodm="http://www.corel.com/coreldraw/odm/2003">
 <defs>
  <style type="text/css">
   <![CDATA[
    .cdfil0 {fill:#8F0707}
   ]]>
  </style>
 </defs>
 <g id="_0">
  <metadata id="CorelCorpID_0Corel-Layer"/>
  <g>
   <path class="cdfil0" d="M3094.77 2326.99l-2455.51 0 587.08 -1611.17 1868.43 0c29.74,0 54.05,24.31 54.05,54.05l0 1503.07c0,29.74 -24.31,54.05 -54.05,54.05zm-2949.36 0l-72.3 0c-29.75,0 -54.06,-24.31 -54.06,-54.05l0 -1503.07c0,-29.74 24.31,-54.05 54.06,-54.05l659.38 0 -587.08 1611.17zm2514.98 -742.21c0,-321.46 -260.58,-582.04 -582.03,-582.04 -321.45,0 -582.04,260.58 -582.04,582.03 0,321.45 260.59,582.04 582.04,582.04 321.45,0 582.03,-260.59 582.03,-582.03zm-1164.07 -20.43l0.36 0 -0.36 0zm0 40.84l0.36 0 -0.36 0zm602.46 -602.1l0 -0.23 0 0.23zm-40.86 0l0.02 -0.47 -0.02 0.47zm602.11 561.26l0.36 0 -0.36 0zm0 40.84l0.36 0 -0.36 0zm-505.81 515.41c73.36,-68.03 131.93,-150.38 172.16,-241.99l206.44 0c-85.13,131.7 -223.34,219.99 -378.6,241.99zm-60.68 -241.99l187.96 0c-44.14,93.82 -108.91,176.51 -189.39,241.87l1.43 -241.87zm-218.33 0l177.49 0 -1.39 230.78c-74.39,-63.55 -134.43,-142.24 -176.1,-230.78zm-251.32 0l206.45 0c40.22,91.61 98.8,173.96 172.15,241.99 -155.26,-21.95 -293.44,-110.3 -378.6,-241.99zm995.27 -273.42l-231.4 0c-2.22,79.44 -17.39,158.02 -44.9,232.58l213.92 0c37.99,-71.87 59.31,-151.34 62.38,-232.58zm-525.38 232.58l205.37 0c29.23,-74.19 45.39,-152.87 47.74,-232.58l-251.7 0 -1.41 232.58zm-236.22 0l195.38 0 1.38 -232.58 -244.49 0c2.36,79.71 18.5,158.39 47.73,232.58zm-257.62 0l213.91 0c-27.51,-74.56 -42.68,-153.14 -44.9,-232.58l-231.39 0c3.06,81.24 24.39,160.71 62.38,232.58zm554.28 -788.83c73.34,68.02 131.93,150.4 172.16,241.99l206.44 0c-85.2,-131.75 -223.24,-220.03 -378.6,-241.99zm-57.17 241.99l184.45 0c-42.98,-91.33 -105.44,-172.08 -183.03,-236.62l-1.42 236.62zm-221.84 0l181 0 1.41 -236.11c-77.3,64.47 -139.55,145.03 -182.41,236.11zm-251.32 0l206.45 0c40.21,-91.59 98.82,-173.97 172.15,-241.99 -155.35,22.01 -293.42,110.22 -378.6,241.99zm995.27 273.42l-231.4 0c-2.22,-79.45 -17.39,-158 -44.9,-232.57l213.92 0c37.97,71.85 59.31,151.35 62.38,232.57zm-522.35 -232.57l202.34 0c29.22,74.17 45.37,152.87 47.74,232.57l-251.46 0 1.38 -232.57zm-239.25 0l198.41 0 -1.4 232.57 -244.74 0c2.35,-79.7 18.51,-158.4 47.73,-232.57zm-257.62 0l213.91 0c-27.51,74.57 -42.68,153.12 -44.9,232.57l-231.39 0c3.06,-81.22 24.4,-160.72 62.38,-232.57z"/>
  </g>
  <polygon class="cdfil0" points="526.76,2325.85 255.17,2326.89 858.02,714.69 1130.36,713.02 "/>
 </g>
</svg>
