<?xml version="1.0" encoding="UTF-8"?>
<!DOCTYPE svg PUBLIC "-//W3C//DTD SVG 1.1//EN" "http://www.w3.org/Graphics/SVG/1.1/DTD/svg11.dtd">
<!-- Creator: CorelDRAW 2021 (64-Bit) -->
<svg xmlns="http://www.w3.org/2000/svg" xml:space="preserve" width="31.75mm" height="31.75mm" version="1.1" style="shape-rendering:geometricPrecision; text-rendering:geometricPrecision; image-rendering:optimizeQuality; fill-rule:evenodd; clip-rule:evenodd"
viewBox="0 0 3175 3175"
 xmlns:xlink="http://www.w3.org/1999/xlink"
 xmlns:xodm="http://www.corel.com/coreldraw/odm/2003">
 <defs>
  <style type="text/css">
   <![CDATA[
    .fil0 {fill:#8F0707}
   ]]>
  </style>
 </defs>
 <g id="_0">
  <metadata id="CorelCorpID_0Corel-Layer"/>
  <path class="fil0" d="M373.26 2559.6l979.85 -809.56 176.63 142.58c51.74,41.78 135.93,41.39 187.08,-0.88l188.46 -155.71 1020.2 823.57 -2552.22 0z"/>
  <path class="fil0" d="M2946.71 839.34c49.7,15.58 85.24,55.03 85.24,100.93l0 1495.16c0,32.55 -17.86,61.85 -45.97,81.7l-1046.99 -845.2 1007.72 -832.59z"/>
  <path class="fil0" d="M2883.35 795.21l-1168.31 965.27c-51.15,42.26 -135.34,42.65 -187.08,0.88l-1196.83 -966.15 2552.22 0z"/>
  <path class="fil0" d="M298.96 2524.89c-49.7,-15.57 -85.24,-55.03 -85.24,-100.93l0 -1495.16c0,-32.54 17.86,-61.85 45.97,-81.7l1046.99 845.2 -1007.72 832.59z"/>
 </g>
</svg>
