<?xml version="1.0" encoding="UTF-8"?>
<!DOCTYPE svg PUBLIC "-//W3C//DTD SVG 1.1//EN" "http://www.w3.org/Graphics/SVG/1.1/DTD/svg11.dtd">
<!-- Creator: CorelDRAW 2021 (64-Bit) -->
<svg xmlns="http://www.w3.org/2000/svg" xml:space="preserve" width="31.75mm" height="31.75mm" version="1.1" style="shape-rendering:geometricPrecision; text-rendering:geometricPrecision; image-rendering:optimizeQuality; fill-rule:evenodd; clip-rule:evenodd"
viewBox="0 0 3175 3175"
 xmlns:xlink="http://www.w3.org/1999/xlink"
 xmlns:xodm="http://www.corel.com/coreldraw/odm/2003">
 <defs>
  <style type="text/css">
   <![CDATA[
    .str0 {stroke:black;stroke-width:7.62;stroke-linejoin:bevel;stroke-miterlimit:22.9256}
    .fil1 {fill:none}
    .fil0 {fill:#8F0707}
   ]]>
  </style>
 </defs>
 <g id="_0">
  <metadata id="CorelCorpID_0Corel-Layer"/>
  <g>
   <path class="fil0" d="M3054.1 1642.39c0,-801.09 -649.41,-1450.51 -1450.51,-1450.51 -801.09,0 -1450.51,649.41 -1450.51,1450.5 0,801.1 649.41,1450.51 1450.5,1450.52 801.1,0 1450.52,-649.41 1450.52,-1450.5zm-2901.02 -50.91l0.9 0 -0.9 0zm0 101.8l0.9 0 -0.9 0zm1501.41 -1500.52l0 -0.58 0 0.58zm-101.81 0l0.01 -1.19 -0.01 1.19zm1500.53 1398.72l0.89 0 -0.89 0zm0 101.8l0.89 0 -0.89 0zm-1260.56 1284.48c182.79,-169.57 328.8,-374.78 429.03,-603.09l514.5 0c-212.15,328.2 -556.6,548.26 -943.53,603.09zm-151.21 -603.09l468.41 0c-110.02,233.8 -271.42,439.87 -472.01,602.75l3.6 -602.75zm-544.11 0l442.31 0 -3.44 575.15c-185.4,-158.4 -335.02,-354.51 -438.87,-575.15zm-626.33 0l514.5 0c100.25,228.31 246.23,433.52 429.03,603.09 -386.94,-54.73 -731.3,-274.94 -943.53,-603.09zm2480.34 -681.39l-576.68 0c-5.53,197.98 -43.34,393.78 -111.89,579.6l533.08 0c94.71,-179.11 147.85,-377.15 155.49,-579.6zm-1309.29 579.6l511.77 0c72.85,-184.9 113.11,-380.96 118.99,-579.6l-627.29 0 -3.47 579.6zm-588.69 0l486.89 0 3.46 -579.6 -609.34 0c5.89,198.64 46.13,394.7 118.99,579.6zm-642.03 0l533.09 0c-68.57,-185.81 -106.36,-381.62 -111.89,-579.6l-576.68 0c7.64,202.45 60.77,400.5 155.48,579.6zm1381.32 -1965.88c182.76,169.52 328.81,374.84 429.03,603.08l514.5 0c-212.36,-328.33 -556.36,-548.32 -943.53,-603.08zm-142.45 603.08l459.65 0c-107.11,-227.58 -262.76,-428.82 -456.13,-589.69l-3.52 589.69zm-552.87 0l451.07 0 3.51 -588.4c-192.65,160.66 -347.77,361.43 -454.58,588.4zm-626.33 0l514.5 0c100.21,-228.24 246.29,-433.55 429.03,-603.08 -387.15,54.86 -731.26,274.7 -943.53,603.08zm2480.34 681.4l-576.68 0c-5.54,-198.02 -43.32,-393.75 -111.89,-579.6l533.08 0c94.69,179.04 147.84,377.21 155.49,579.6zm-1301.75 -579.6l504.23 0c72.84,184.86 113.1,381 118.99,579.6l-626.68 0 3.46 -579.6zm-596.23 0l494.43 0 -3.47 579.6 -609.95 0c5.88,-198.6 46.15,-394.74 118.99,-579.6zm-642.03 0l533.09 0c-68.57,185.86 -106.36,381.58 -111.89,579.6l-576.68 0c7.63,-202.39 60.8,-400.55 155.48,-579.6z"/>
   <path id="_1" class="fil1 str0" d="M3054.1 1642.39c0,-801.09 -649.41,-1450.51 -1450.51,-1450.51 -801.09,0 -1450.51,649.41 -1450.51,1450.5 0,801.1 649.41,1450.51 1450.5,1450.52 801.1,0 1450.52,-649.41 1450.52,-1450.5zm-2901.02 -50.91l0.9 0m-0.9 101.8l0.9 0m1500.51 -1500.52l0 -0.58m-101.81 0.58l0.01 -1.19m1500.52 1399.91l0.89 0m-0.89 101.8l0.89 0m-1261.45 1284.48c182.79,-169.57 328.8,-374.78 429.03,-603.09l514.5 0c-212.15,328.2 -556.6,548.26 -943.53,603.09zm-151.21 -603.09l468.41 0c-110.02,233.8 -271.42,439.87 -472.01,602.75l3.6 -602.75zm-544.11 0l442.31 0 -3.44 575.15c-185.4,-158.4 -335.02,-354.51 -438.87,-575.15zm-626.33 0l514.5 0c100.25,228.31 246.23,433.52 429.03,603.09 -386.94,-54.73 -731.3,-274.94 -943.53,-603.09zm2480.34 -681.39l-576.68 0c-5.53,197.98 -43.34,393.78 -111.89,579.6l533.08 0c94.71,-179.11 147.85,-377.15 155.49,-579.6zm-1309.29 579.6l511.77 0c72.85,-184.9 113.11,-380.96 118.99,-579.6l-627.29 0 -3.47 579.6zm-588.69 0l486.89 0 3.46 -579.6 -609.34 0c5.89,198.64 46.13,394.7 118.99,579.6zm-642.03 0l533.09 0c-68.57,-185.81 -106.36,-381.62 -111.89,-579.6l-576.68 0c7.64,202.45 60.77,400.5 155.48,579.6zm1381.32 -1965.88c182.76,169.52 328.81,374.84 429.03,603.08l514.5 0c-212.36,-328.33 -556.36,-548.32 -943.53,-603.08zm-142.45 603.08l459.65 0c-107.11,-227.58 -262.76,-428.82 -456.13,-589.69l-3.52 589.69zm-552.87 0l451.07 0 3.51 -588.4c-192.65,160.66 -347.77,361.43 -454.58,588.4zm-626.33 0l514.5 0c100.21,-228.24 246.29,-433.55 429.03,-603.08 -387.15,54.86 -731.26,274.7 -943.53,603.08zm2480.34 681.4l-576.68 0c-5.54,-198.02 -43.32,-393.75 -111.89,-579.6l533.08 0c94.69,179.04 147.84,377.21 155.49,579.6zm-1301.75 -579.6l504.23 0c72.84,184.86 113.1,381 118.99,579.6l-626.68 0 3.46 -579.6zm-596.23 0l494.43 0 -3.47 579.6 -609.95 0c5.88,-198.6 46.15,-394.74 118.99,-579.6zm-642.03 0l533.09 0c-68.57,185.86 -106.36,381.58 -111.89,579.6l-576.68 0c7.63,-202.39 60.8,-400.55 155.48,-579.6z"/>
  </g>
 </g>
</svg>
