<?xml version="1.0" encoding="UTF-8"?>
<!DOCTYPE svg PUBLIC "-//W3C//DTD SVG 1.1//EN" "http://www.w3.org/Graphics/SVG/1.1/DTD/svg11.dtd">
<!-- Creator: CorelDRAW 2021 (64-Bit) -->
<svg xmlns="http://www.w3.org/2000/svg" xml:space="preserve" width="31.75mm" height="31.75mm" version="1.1" style="shape-rendering:geometricPrecision; text-rendering:geometricPrecision; image-rendering:optimizeQuality; fill-rule:evenodd; clip-rule:evenodd"
viewBox="0 0 3175 3175"
 xmlns:xlink="http://www.w3.org/1999/xlink"
 xmlns:xodm="http://www.corel.com/coreldraw/odm/2003">
 <defs>
  <style type="text/css">
   <![CDATA[
    .str0 {stroke:black;stroke-width:26.45;stroke-linecap:round;stroke-linejoin:round;stroke-miterlimit:22.9256}
    .fil0 {fill:#8F0707}
   ]]>
  </style>
 </defs>
 <g id="_0">
  <metadata id="CorelCorpID_0Corel-Layer"/>
  <path class="fil0 str0" d="M1758.49 978.34l-337.17 0c-23.29,0 -42.33,-19.04 -42.33,-42.33l0 -429.98c0,-23.29 19.04,-42.33 42.33,-42.33l337.17 0c23.29,0 42.33,19.04 42.33,42.33l0 429.98c0,23.29 -19.04,42.33 -42.33,42.33zm-2.41 1653.61l-337.17 0c-23.29,0 -42.33,-19.04 -42.33,-42.33l0 -1400.21c0,-23.29 19.04,-42.33 42.33,-42.33l337.17 0c23.29,0 42.33,19.04 42.33,42.33l0 1400.21c0,23.29 -19.04,42.33 -42.33,42.33zm-168.58 516.59c-862.14,0 -1561.04,-698.9 -1561.04,-1561.04 0,-862.14 698.9,-1561.04 1561.04,-1561.04 862.14,0 1561.04,698.9 1561.04,1561.04 0,862.14 -698.9,1561.04 -1561.04,1561.04z"/>
 </g>
</svg>

