<?xml version="1.0" encoding="UTF-8"?>
<!DOCTYPE svg PUBLIC "-//W3C//DTD SVG 1.1//EN" "http://www.w3.org/Graphics/SVG/1.1/DTD/svg11.dtd">
<!-- Creator: CorelDRAW 2021 (64-Bit) -->
<svg xmlns="http://www.w3.org/2000/svg" xml:space="preserve" width="31.75mm" height="31.75mm" version="1.1" style="shape-rendering:geometricPrecision; text-rendering:geometricPrecision; image-rendering:optimizeQuality; fill-rule:evenodd; clip-rule:evenodd"
viewBox="0 0 3175 3175"
 xmlns:xlink="http://www.w3.org/1999/xlink"
 xmlns:xodm="http://www.corel.com/coreldraw/odm/2003">
 <defs>
  <style type="text/css">
   <![CDATA[
    .str0 {stroke:black;stroke-width:26.45;stroke-linecap:round;stroke-linejoin:round;stroke-miterlimit:22.9256}
    .fil0 {fill:#8F0707}
   ]]>
  </style>
 </defs>
 <g id="_0">
  <metadata id="CorelCorpID_0Corel-Layer"/>
  <circle class="fil0 str0" cx="1568.61" cy="1587.5" r="344.24"/>
  <path class="fil0 str0" d="M2388.29 2838.72l-1601.58 0c-247.74,0 -450.43,-202.7 -450.43,-450.43l0 -1601.59c0,-247.73 202.69,-450.42 450.43,-450.42l1601.58 0c247.74,0 450.43,202.69 450.43,450.42l0 1601.59c0,247.73 -202.69,450.43 -450.43,450.43zm-250.08 -300.14l-1101.4 0c-220.22,0 -400.39,-180.16 -400.39,-400.39l0 -1101.4c0,-220.22 180.17,-400.38 400.39,-400.38l1101.4 0c220.22,0 400.39,180.16 400.39,400.38l0 1101.4c0,220.23 -180.17,400.39 -400.39,400.39z"/>
  <path class="fil0 str0" d="M2047.02 2388.41l-919.04 0c-187.77,0 -341.39,-153.62 -341.39,-341.39l0 -919.04c0,-187.77 153.62,-341.39 341.39,-341.39l919.04 0c187.77,0 341.39,153.62 341.39,341.39l0 919.04c0,187.77 -153.62,341.39 -341.39,341.39zm84.84 -1413.99c47.13,0 85.34,38.2 85.34,85.35 0,47.13 -38.21,85.34 -85.34,85.34 -47.14,0 -85.36,-38.21 -85.36,-85.34 0,-47.15 38.22,-85.35 85.36,-85.35zm-571.05 1104.63c-269.34,0 -487.69,-218.36 -487.69,-487.71 0,-269.35 218.35,-487.7 487.69,-487.7 269.35,0 487.71,218.35 487.71,487.7 0,269.35 -218.36,487.71 -487.71,487.71z"/>
 </g>
</svg>
