<?xml version="1.0" encoding="UTF-8"?>
<!DOCTYPE svg PUBLIC "-//W3C//DTD SVG 1.1//EN" "http://www.w3.org/Graphics/SVG/1.1/DTD/svg11.dtd">
<!-- Creator: CorelDRAW 2021 (64 Bit) -->
<svg xmlns="http://www.w3.org/2000/svg" xml:space="preserve" width="31.75mm" height="31.75mm" version="1.1" style="shape-rendering:geometricPrecision; text-rendering:geometricPrecision; image-rendering:optimizeQuality; fill-rule:evenodd; clip-rule:evenodd"
viewBox="0 0 3175 3175"
 xmlns:xlink="http://www.w3.org/1999/xlink"
 xmlns:xodm="http://www.corel.com/coreldraw/odm/2003">
 <defs>
  <style type="text/css">
   <![CDATA[
    .str0 {stroke:black;stroke-width:26.45;stroke-miterlimit:22.9256}
    .fil0 {fill:black}
   ]]>
  </style>
 </defs>
 <g id="Camada_x0020_1">
  <metadata id="CorelCorpID_0Corel-Layer"/>
  <path class="fil0 str0" d="M382.61 52.91l2409.78 0c181.33,0 329.7,148.37 329.7,329.7l0 2409.78c0,181.33 -148.37,329.69 -329.7,329.69l-2409.78 0c-181.33,0 -329.69,-148.36 -329.69,-329.69l0 -2409.78c0,-181.33 148.36,-329.7 329.69,-329.7zm1369.74 2598.61l-473.56 0 0 -1372.74 473.56 0 0 173.83c0,-173.83 881.19,-389.63 905.17,306.01l0 904.89 -449.59 0c0,-279.63 0,-559.25 0,-838.87 -11.99,-318.07 -413.62,-354.03 -455.58,-52.68l0 879.56zm-785.28 5.99l-449.58 0 0 -1378.73 449.58 0 0 1378.73zm-218.8 -2187.98c148.98,0 269.75,120.77 269.75,269.75 0,148.98 -120.77,269.75 -269.75,269.75 -148.98,0 -269.75,-120.77 -269.75,-269.75 0,-148.98 120.77,-269.75 269.75,-269.75z"/>
 </g>
</svg>
