<?xml version="1.0" encoding="UTF-8"?>
<!DOCTYPE svg PUBLIC "-//W3C//DTD SVG 1.1//EN" "http://www.w3.org/Graphics/SVG/1.1/DTD/svg11.dtd">
<!-- Creator: CorelDRAW 2021 (64 Bit) -->
<svg xmlns="http://www.w3.org/2000/svg" xml:space="preserve" width="5mm" height="5mm" version="1.1" style="shape-rendering:geometricPrecision; text-rendering:geometricPrecision; image-rendering:optimizeQuality; fill-rule:evenodd; clip-rule:evenodd"
viewBox="0 0 500 500"
 xmlns:xlink="http://www.w3.org/1999/xlink"
 xmlns:xodm="http://www.corel.com/coreldraw/odm/2003">
 <defs>
  <style type="text/css">
   <![CDATA[
    .str0 {stroke:#CF3034;stroke-width:21.25;stroke-miterlimit:22.9256}
    .fil3 {fill:none}
    .fil1 {fill:#373435}
    .fil0 {fill:#737476}
    .fil2 {fill:#CF3034}
   ]]>
  </style>
 </defs>
 <g id="Layer_x0020_1">
  <metadata id="CorelCorpID_0Corel-Layer"/>
  <path class="fil0" d="M135.12 229.77l306.07 -0.38c0,0 -13.43,31.64 -29.31,65.62 -6.66,14.26 -31.77,13.03 -40.39,13.05 -14.34,0 -166.79,0.08 -166.79,0.08l-24.53 44.57 -112.82 -0.07 67.78 -122.87z"/>
  <path class="fil1" d="M135.96 184.31l81.53 -0.1 -5.23 10.59 108 0.23 10.5 -10.97 111.26 -0.13c0,0 -13.43,31.64 -29.31,65.62 -6.66,14.26 -31.77,13.02 -40.39,13.05 -14.34,0 -166.79,0.08 -166.79,0.08l-24.53 44.57 -112.82 -0.07 67.77 -122.87z"/>
  <path class="fil2" d="M137.36 136.38l306.07 -0.38c0,0 -13.43,31.64 -29.31,65.62 -6.67,14.26 -31.77,13.02 -40.4,13.05 -14.34,0 -166.78,0.08 -166.78,0.08l-24.54 44.57 -112.82 -0.07 67.78 -122.87zm91.28 34.5l-11.36 20.27 99.84 0.02c6.49,-1.56 10.7,-12.74 15.75,-20.6l-104.23 0.31z"/>
  <circle class="fil3 str0" cx="255.1" cy="245.59" r="229.6"/>
 </g>
</svg>
