<?xml version="1.0" encoding="UTF-8"?>
<!DOCTYPE svg PUBLIC "-//W3C//DTD SVG 1.1//EN" "http://www.w3.org/Graphics/SVG/1.1/DTD/svg11.dtd">
<!-- Creator: CorelDRAW 2021 (64 Bit) -->
<svg xmlns="http://www.w3.org/2000/svg" xml:space="preserve" width="105.833mm" height="66.1458mm" version="1.1" style="shape-rendering:geometricPrecision; text-rendering:geometricPrecision; image-rendering:optimizeQuality; fill-rule:evenodd; clip-rule:evenodd"
viewBox="0 0 10583.32 6614.58"
 xmlns:xlink="http://www.w3.org/1999/xlink"
 xmlns:xodm="http://www.corel.com/coreldraw/odm/2003">
 <defs>
  <style type="text/css">
   <![CDATA[
    .str0 {stroke:#FEFEFE;stroke-width:30;stroke-miterlimit:22.9256}
    .fil3 {fill:#FEFEFE}
    .fil1 {fill:black}
    .fil2 {fill:#8F0707}
    .fil0 {fill:#C9C9C9}
   ]]>
  </style>
 </defs>
 <g id="Camada_x0020_1">
  <metadata id="CorelCorpID_0Corel-Layer"/>
  <g id="Backup_of_logo_x0020_p_x0020_premoaço.cdr">
   <path class="fil0 str0" d="M2151.71 3084.81l8099.29 -9.87c0,0 -355.33,826.2 -775.63,1713.37 -176.45,372.45 -840.7,340.16 -1068.99,340.64 -379.43,0.04 -4413.45,2.18 -4413.45,2.18l-649.23 1163.74 -2985.46 -1.73 1793.47 -3208.33z"/>
   <path class="fil1 str0" d="M2173.92 1897.84l8099.29 -9.87c0,0 -355.33,826.2 -775.63,1713.37 -176.45,372.45 -840.7,340.16 -1068.99,340.65 -379.43,0.03 -4413.45,2.17 -4413.45,2.17l-649.23 1163.74 -2985.46 -1.73 1793.47 -3208.33z"/>
   <path class="fil2 str0" d="M2210.97 646.45l8099.29 -9.87c0,0 -355.34,826.2 -775.64,1713.37 -176.44,372.44 -840.7,340.16 -1068.98,340.64 -379.44,0.04 -4413.45,2.17 -4413.45,2.17l-649.23 1163.74 -2985.46 -1.72 1793.47 -3208.33z"/>
   <path class="fil3 str0" d="M4626.46 1547.28l-300.54 529.19 2641.99 0.5c171.79,-40.73 283.21,-332.53 416.9,-537.82l-2758.35 8.13z"/>
  </g>
 </g>
</svg>
