<?xml version="1.0" encoding="UTF-8"?>
<!DOCTYPE svg PUBLIC "-//W3C//DTD SVG 1.1//EN" "http://www.w3.org/Graphics/SVG/1.1/DTD/svg11.dtd">
<!-- Creator: CorelDRAW 2021 (64 Bit) -->
<svg xmlns="http://www.w3.org/2000/svg" xml:space="preserve" width="150px" height="150px" version="1.1" style="shape-rendering:geometricPrecision; text-rendering:geometricPrecision; image-rendering:optimizeQuality; fill-rule:evenodd; clip-rule:evenodd"
viewBox="0 0 150 150"
 xmlns:xlink="http://www.w3.org/1999/xlink"
 xmlns:xodm="http://www.corel.com/coreldraw/odm/2003">
 <defs>
  <style type="text/css">
   <![CDATA[
    .str0 {stroke:#CF3034;stroke-width:6.38;stroke-miterlimit:22.9256}
    .fil3 {fill:none}
    .fil1 {fill:#373435}
    .fil0 {fill:#737476}
    .fil2 {fill:#CF3034}
   ]]>
  </style>
 </defs>
 <g id="Layer_x0020_1">
  <metadata id="CorelCorpID_0Corel-Layer"/>
  <path class="fil0" d="M40.54 68.93l91.82 -0.11c0,0 -4.03,9.49 -8.8,19.68 -2,4.28 -9.53,3.91 -12.12,3.92 -4.3,0 -50.03,0.02 -50.03,0.02l-7.36 13.37 -33.85 -0.02 20.34 -36.86z"/>
  <path class="fil1" d="M40.79 55.29l24.46 -0.03 -1.57 3.18 32.4 0.07 3.15 -3.29 33.38 -0.04c0,0 -4.03,9.49 -8.8,19.69 -2,4.28 -9.53,3.9 -12.11,3.91 -4.31,0 -50.04,0.02 -50.04,0.02l-7.36 13.37 -33.84 -0.02 20.33 -36.86z"/>
  <path class="fil2" d="M41.21 40.92l91.82 -0.12c0,0 -4.03,9.49 -8.8,19.69 -2,4.28 -9.53,3.91 -12.12,3.91 -4.3,0 -50.03,0.03 -50.03,0.03l-7.36 13.37 -33.84 -0.02 20.33 -36.86zm27.38 10.34l-3.41 6.09 29.96 0c1.94,-0.47 3.21,-3.82 4.72,-6.18l-31.27 0.09z"/>
  <circle class="fil3 str0" cx="76.53" cy="73.68" r="68.88"/>
 </g>
</svg>
