<?xml version="1.0" encoding="UTF-8"?>
<!DOCTYPE svg PUBLIC "-//W3C//DTD SVG 1.1//EN" "http://www.w3.org/Graphics/SVG/1.1/DTD/svg11.dtd">
<!-- Creator: CorelDRAW 2021 (64 Bit) -->
<svg xmlns="http://www.w3.org/2000/svg" xml:space="preserve" width="92.604mm" height="52.9166mm" version="1.1" style="shape-rendering:geometricPrecision; text-rendering:geometricPrecision; image-rendering:optimizeQuality; fill-rule:evenodd; clip-rule:evenodd"
viewBox="0 0 9260.4 5291.66"
 xmlns:xlink="http://www.w3.org/1999/xlink"
 xmlns:xodm="http://www.corel.com/coreldraw/odm/2003">
 <defs>
  <style type="text/css">
   <![CDATA[
    .str0 {stroke:#FEFEFE;stroke-width:26.46;stroke-miterlimit:22.9256}
    .fil1 {fill:#FEFEFE}
    .fil0 {fill:#EDEDED}
   ]]>
  </style>
 </defs>
 <g id="Camada_x0020_1">
  <metadata id="CorelCorpID_0Corel-Layer"/>
  <g id="Backup_of_logo_x0020_p_x0020_premoaço.cdr">
   <path class="fil0 str0" d="M1798.19 2273.99l6947.45 -8.58c0,0 -304.81,718.25 -665.33,1489.5 -151.35,323.78 -721.14,295.71 -916.96,296.13 -325.47,0.03 -3785.79,1.89 -3785.79,1.89l-556.9 1011.68 -2560.88 -1.5 1538.41 -2789.12z"/>
   <path class="fil0 str0" d="M1817.24 1242.12l6947.45 -8.58c0,0 -304.81,718.24 -665.33,1489.49 -151.35,323.78 -721.14,295.72 -916.96,296.14 -325.47,0.03 -3785.79,1.88 -3785.79,1.88l-556.9 1011.68 -2560.88 -1.5 1538.41 -2789.11z"/>
   <path class="fil0 str0" d="M1849.02 154.24l6947.44 -8.58c0,0 -304.8,718.24 -665.32,1489.49 -151.36,323.78 -721.15,295.72 -916.96,296.14 -325.48,0.03 -3785.79,1.88 -3785.79,1.88l-556.9 1011.68 -2560.88 -1.5 1538.41 -2789.11z"/>
   <path class="fil1 str0" d="M3920.99 937.36l-257.8 460.05 2266.26 0.44c147.36,-35.41 242.93,-289.09 357.61,-467.56l-2366.07 7.07z"/>
  </g>
 </g>
</svg>
