<?xml version="1.0" encoding="UTF-8"?>
<!DOCTYPE svg PUBLIC "-//W3C//DTD SVG 1.1//EN" "http://www.w3.org/Graphics/SVG/1.1/DTD/svg11.dtd">
<!-- Creator: CorelDRAW 2021 (64-Bit) -->
<svg xmlns="http://www.w3.org/2000/svg" xml:space="preserve" width="31.75mm" height="31.75mm" version="1.1" style="shape-rendering:geometricPrecision; text-rendering:geometricPrecision; image-rendering:optimizeQuality; fill-rule:evenodd; clip-rule:evenodd"
viewBox="0 0 3175 3175"
 xmlns:xlink="http://www.w3.org/1999/xlink"
 xmlns:xodm="http://www.corel.com/coreldraw/odm/2003">
 <defs>
  <style type="text/css">
   <![CDATA[
    .plfil0 {fill:#8F0707}
   ]]>
  </style>
 </defs>
 <g id="_0">
  <metadata id="CorelCorpID_0Corel-Layer"/>
  <path class="plfil0" d="M2577.34 1102.07c224.1,0 405.75,181.66 405.75,405.76 0,224.09 -181.65,405.74 -405.75,405.74 -134.87,0 -254.35,-65.82 -328.12,-167.07l-1204.3 740.81c10.7,36.39 16.48,74.88 16.48,114.73 0,224.1 -181.66,405.75 -405.75,405.75 -224.1,0 -405.74,-181.65 -405.74,-405.75 0,-224.09 181.64,-405.75 405.74,-405.75 103.04,0 197.1,38.43 268.66,101.72l0 -9.48 1238.03 -761.55c4.03,-2.49 7.16,-5.28 9.4,-8.25 -0.09,-3.62 -0.15,-7.25 -0.15,-10.9 0,-4.33 0.09,-8.64 0.23,-12.92 -2.81,-3.83 -6.99,-7.4 -12.58,-10.44l-1233.81 -671.87c-73.24,72.08 -173.71,116.55 -284.58,116.55 -224.1,0 -405.74,-181.65 -405.74,-405.74 0,-224.1 181.64,-405.76 405.74,-405.76 224.09,0 405.76,181.66 405.76,405.76 0,38.81 -5.48,76.34 -15.65,111.88l1203.56 655.42c71.96,-113.38 198.6,-188.64 342.82,-188.64z"/>
 </g>
</svg>
