<?xml version="1.0" encoding="UTF-8"?>
<!DOCTYPE svg PUBLIC "-//W3C//DTD SVG 1.1//EN" "http://www.w3.org/Graphics/SVG/1.1/DTD/svg11.dtd">
<!-- Creator: CorelDRAW 2021 (64-Bit) -->
<svg xmlns="http://www.w3.org/2000/svg" xml:space="preserve" width="31.75mm" height="31.75mm" version="1.1" style="shape-rendering:geometricPrecision; text-rendering:geometricPrecision; image-rendering:optimizeQuality; fill-rule:evenodd; clip-rule:evenodd"
viewBox="0 0 3175 3175"
 xmlns:xlink="http://www.w3.org/1999/xlink"
 xmlns:xodm="http://www.corel.com/coreldraw/odm/2003">
 <defs>
  <style type="text/css">
   <![CDATA[
    .str0 {stroke:black;stroke-width:26.45;stroke-linecap:round;stroke-linejoin:round;stroke-miterlimit:22.9256}
    .fil0 {fill:#8F0707}
   ]]>
  </style>
 </defs>
 <g id="_0">
  <metadata id="CorelCorpID_0Corel-Layer"/>
  <path class="fil0 str0" d="M1587.5 2710.24c-620.08,0 -1122.74,-502.66 -1122.74,-1122.74 0,-100.83 13.36,-198.52 38.29,-291.48 -142.44,-220.47 -117.84,-519.69 74.37,-712.97l0.01 -0.02c192.2,-193.28 491.29,-219.53 712.54,-78.34 94.76,-25.98 194.51,-39.93 297.53,-39.93 620.08,0 1122.74,502.66 1122.74,1122.74 0,100.82 -13.37,198.51 -38.29,291.46 142.44,220.47 117.85,519.7 -74.36,712.98l-0.01 0.02c-192.2,193.27 -491.28,219.52 -712.53,78.34 -94.77,25.98 -194.53,39.94 -297.55,39.94zm-583.29 -827.73c2.7,-92.47 186.21,-104.97 185.44,-16.67 8.68,75.01 29.17,136.47 61.47,184.75 32.29,47.93 82.3,86.82 150.03,116.69 67.72,29.52 144.12,44.45 228.85,44.45 75.36,0 141.69,-11.11 199.33,-33.69 57.65,-22.57 100.37,-53.48 128.49,-92.72 28.13,-39.24 42.37,-81.95 42.37,-127.79 0,-46.55 -13.54,-87.18 -40.63,-122.25 -27.09,-34.73 -71.88,-63.9 -134.39,-87.86 -39.94,-15.28 -128.49,-39.59 -265.67,-72.58 -137.17,-32.99 -233.02,-63.9 -287.89,-93.07 -71.19,-37.51 -123.98,-84.04 -158.71,-139.26 -35.07,-55.21 -52.44,-117.38 -52.44,-185.79 0,-75.71 21.54,-146.21 64.25,-211.5 42.71,-65.63 104.88,-115.29 187.18,-149.32 81.97,-34.04 173.3,-51.05 273.66,-51.05 110.43,0 208.02,17.71 292.4,53.48 84.39,35.42 149.33,87.86 194.82,157.31 45.49,69.11 69.8,147.59 73.29,235.11 6.32,109.15 -175.08,107.07 -189.62,14.59 -10.08,-94.12 -44.45,-165.31 -103.14,-213.24 -58.69,-48.27 -145.51,-72.23 -260.11,-72.23 -119.46,0 -206.64,21.88 -261.16,65.64 -54.52,43.75 -81.95,96.54 -81.95,158.35 0,53.49 19.44,97.6 57.99,132.32 38.2,34.38 137.18,70.15 297.62,106.27 160.44,36.46 270.53,68.06 330.26,95.15 86.47,39.94 150.71,90.29 192.04,151.76 41.32,61.12 61.82,131.61 61.82,211.49 0,79.53 -22.57,153.85 -68.07,224 -45.5,70.15 -110.44,124.67 -195.52,163.56 -85.08,38.9 -180.58,58.34 -287.19,58.34 -134.74,0 -247.62,-19.79 -338.6,-59.03 -91.33,-39.24 -162.52,-98.28 -214.27,-177.46 -52.09,-78.83 -79.17,-168.09 -81.95,-267.75z"/>
 </g>
</svg>
