<?xml version="1.0" encoding="UTF-8"?>
<!DOCTYPE svg PUBLIC "-//W3C//DTD SVG 1.1//EN" "http://www.w3.org/Graphics/SVG/1.1/DTD/svg11.dtd">
<!-- Creator: CorelDRAW 2021 (64 Bit) -->
<svg xmlns="http://www.w3.org/2000/svg" xml:space="preserve" width="31.75mm" height="31.75mm" version="1.1" style="shape-rendering:geometricPrecision; text-rendering:geometricPrecision; image-rendering:optimizeQuality; fill-rule:evenodd; clip-rule:evenodd"
viewBox="0 0 3175 3175"
 xmlns:xlink="http://www.w3.org/1999/xlink"
 xmlns:xodm="http://www.corel.com/coreldraw/odm/2003">
 <defs>
  <style type="text/css">
   <![CDATA[
    .foneCor {fill:#8F0707;}
   ]]>
  </style>
 </defs>
 <g id="Camada_x0020_1">
  <metadata id="CorelCorpID_0Corel-Layer"/>
  <path class="foneCor" d="M26.47 588.45c0,137.24 6.61,201.73 44.93,334.01 36.89,127.35 58.68,171.8 104.07,281.14 23.45,56.48 62.46,127.98 91.12,181.35 37.02,68.96 62.86,107.5 101.1,171.37 63.41,105.93 240.5,344.53 331.33,442.23 7.5,8.07 9.06,12.17 17.21,20.36 8.74,8.78 10.93,13.48 18.77,21.95l55.16 60.71c30.16,37.81 250.88,254.87 295.32,290.33 7.59,6.05 11.87,11.84 19.07,18.51l62.62 53.25c14.67,13.07 27.78,23.05 42.31,35.99l42.84 35.45c133.31,105.4 198.88,150.63 336.88,242.5 45.98,30.61 145.01,87.78 195.24,114.82l129.44 64.73c87.3,44.01 248.93,102.5 341.17,125.46 77.86,19.39 176.55,39.39 273.07,39.46l1.06 0c102.76,-0.08 202.97,-22.85 272.89,-93.12 99.12,-99.62 293.56,-262.7 293.56,-411.1l0 -40.71c0,-134.29 -140.97,-263.71 -233.53,-336.46 -80.39,-63.18 -248.79,-186.55 -383.43,-186.55 -64.36,0 -102.1,7.76 -156.78,40.53 -56.41,33.8 -57.55,44.13 -93.3,72.68 -40.73,32.51 -104.47,107.25 -127.49,123.05 -129.86,89.17 -393.87,-129.35 -495.77,-211.65 -6.23,-5.03 -7.33,-5.19 -13.75,-11.3l-39 -33.03c-5.32,-4.45 -7.66,-7.63 -12.61,-12.44l-50.23 -43.73c-66.93,-66.22 -193.35,-177.52 -241.4,-237.76l-139.03 -149.1c-93.83,-106.2 -234.1,-288.2 -264.23,-409.1 -14.25,-57.18 -13.05,-111.33 23.01,-146.82 32.88,-32.37 62.9,-62.88 95.62,-95.42 9.57,-9.53 12.58,-15.88 21.81,-25.16 208.95,-209.95 78.61,-426.48 -80.37,-628.86 -71.31,-90.78 -196.86,-233.11 -352.54,-233.11 -148.59,0 -271.92,129.73 -351.59,209l-48.5 51.72c-23.24,23.24 -44.62,43.15 -64.82,69.84 -34.34,45.34 -61.23,126.84 -61.23,204.98z"/>
 </g>
</svg>
