<?xml version="1.0" encoding="UTF-8"?>
<!DOCTYPE svg PUBLIC "-//W3C//DTD SVG 1.1//EN" "http://www.w3.org/Graphics/SVG/1.1/DTD/svg11.dtd">
<!-- Creator: CorelDRAW 2021 (64 Bit) -->
<svg xmlns="http://www.w3.org/2000/svg" xml:space="preserve" width="31.75mm" height="31.75mm" version="1.1" style="shape-rendering:geometricPrecision; text-rendering:geometricPrecision; image-rendering:optimizeQuality; fill-rule:evenodd; clip-rule:evenodd"
viewBox="0 0 3175 3175"
 xmlns:xlink="http://www.w3.org/1999/xlink"
 xmlns:xodm="http://www.corel.com/coreldraw/odm/2003">
 <defs>
  <style type="text/css">
   <![CDATA[
    .fil0 {fill:#8F0707}
    .fil1 {fill:#8F0707}
   ]]>
  </style>
 </defs>
 <g id="Camada_x0020_1">
  <metadata id="CorelCorpID_0Corel-Layer"/>
  <path class="fil0" d="M1402.42 1490.79c101.76,146.37 145.64,206.82 329.84,287.18 158.37,-85.46 57.79,-207.75 331.6,-58.98 66.87,36.32 129.83,38.12 131.22,123.94 6.14,381.5 -667.97,369.27 -1063.89,-266.08 -259.54,-416.5 154.09,-705.29 267.64,-460.27 151.24,326.36 56.23,240.18 3.59,374.21zm-536.56 833.93c101.45,-19.07 240.92,-91.36 331.02,-42.45 100.51,54.57 196.35,95.62 330.58,110.22 264.78,28.81 528.5,-78.13 659.58,-217.29 159.36,-169.21 263.15,-319.56 270.85,-592.85 14.1,-499.86 -395.57,-886.64 -891.54,-859.32 -628.52,34.62 -994.44,752.41 -656.14,1283.42 48.62,76.31 -1.14,153.75 -44.35,318.27z"/>
  <path class="fil1" d="M2926.34 3077.44l-2672.26 0c-87.31,0 -158.74,-71.43 -158.74,-158.74l0 -2683.98c0,-87.31 71.43,-158.74 158.74,-158.74l2672.26 0c87.31,0 158.74,71.43 158.74,158.74l0 2683.98c0,87.31 -71.43,158.74 -158.74,158.74zm-2422.62 -392.9c27.22,-145.81 84.27,-306.44 123.71,-456.37 35.05,-133.22 48.75,-104.13 -6.67,-223.72 -32.84,-70.88 -57,-144.91 -73.67,-228.71 -209.19,-1051.44 1061.74,-1744.92 1842.43,-1002.11 70.39,66.97 181.8,224.19 232.95,346.28 388.83,928.05 -522.07,1817.03 -1423.29,1450.28 -126.9,-51.64 -84.59,-41.17 -222.81,-6.91 -148.65,36.85 -325.72,97.7 -472.65,121.26z"/>
 </g>
</svg>
